<?xml version="1.0" standalone="no"?>
<!DOCTYPE svg PUBLIC "-//W3C//DTD SVG 20010904//EN"
 "http://www.w3.org/TR/2001/REC-SVG-20010904/DTD/svg10.dtd">
<svg version="1.0" xmlns="http://www.w3.org/2000/svg"
 width="800.000000pt" height="800.000000pt" viewBox="0 0 800.000000 800.000000"
 preserveAspectRatio="xMidYMid meet">
<metadata>
Created by potrace 1.14, written by Peter Selinger 2001-2017
</metadata>
<g transform="translate(0.000000,800.000000) scale(0.100000,-0.100000)"
fill="#000000" stroke="none">
<path d="M3778 7995 c-2 -2 -35 -6 -73 -10 -348 -30 -699 -121 -1020 -263 -88
-39 -286 -141 -317 -163 -14 -10 -29 -19 -32 -19 -14 0 -291 -192 -335 -232
-8 -7 -27 -22 -42 -34 -108 -81 -311 -281 -434 -429 -27 -33 -53 -61 -57 -63
-5 -2 -8 -10 -8 -18 0 -8 -3 -14 -7 -14 -5 0 -19 -17 -33 -38 -14 -20 -28 -39
-31 -42 -3 -3 -35 -50 -71 -105 -203 -314 -341 -630 -422 -965 -34 -144 -57
-270 -50 -281 3 -5 2 -9 -3 -9 -4 0 -8 -10 -9 -22 -1 -22 -12 -141 -19 -218
-8 -69 -3 -485 5 -485 1 0 3 -20 5 -45 2 -25 6 -59 10 -75 3 -17 8 -52 11 -80
3 -27 10 -57 15 -66 4 -9 6 -18 4 -20 -2 -3 0 -22 6 -44 5 -22 11 -55 15 -72
3 -18 14 -63 25 -100 11 -38 22 -77 24 -88 7 -30 74 -226 89 -260 8 -16 21
-48 30 -70 168 -403 478 -831 811 -1120 32 -27 63 -55 69 -60 31 -28 220 -168
286 -212 270 -180 651 -350 960 -428 25 -6 69 -16 88 -20 13 -2 31 -6 40 -9 9
-3 28 -7 42 -10 14 -3 35 -7 46 -10 29 -6 89 -15 214 -32 149 -19 508 -26 660
-12 41 4 102 10 135 13 53 5 216 33 285 49 14 4 38 9 54 12 16 2 60 13 98 24
62 17 72 20 81 20 1 0 47 16 102 35 55 19 107 37 115 39 16 5 124 49 180 73
224 99 547 295 710 432 14 11 42 36 64 53 99 84 265 247 333 327 15 18 40 47
56 63 15 16 27 31 27 34 0 3 17 27 38 52 20 26 41 51 45 57 23 29 137 195 137
199 0 5 18 35 77 131 17 27 143 284 143 291 0 3 9 25 20 49 21 45 68 169 75
195 2 8 20 70 39 138 20 68 38 137 41 153 3 16 12 60 19 97 8 37 17 92 21 122
4 30 9 64 11 75 13 68 19 197 18 390 0 219 -4 291 -25 428 -6 40 -13 88 -16
107 -2 19 -9 53 -15 75 -6 22 -12 49 -14 60 -15 95 -81 307 -144 467 -46 116
-150 332 -162 336 -4 2 -6 7 -3 12 3 4 -2 13 -10 20 -8 7 -15 19 -15 26 0 8
-4 14 -10 14 -5 0 -10 5 -10 10 0 17 -181 292 -210 320 -3 3 -23 28 -44 55
-22 28 -46 57 -53 65 -7 8 -30 33 -49 55 -104 116 -388 385 -408 385 -3 0 -15
8 -25 18 -26 23 -38 32 -96 72 -27 19 -51 38 -53 43 -2 4 -7 7 -12 7 -5 0 -41
22 -82 48 -121 80 -285 167 -423 226 -50 21 -103 45 -120 52 -120 55 -519 164
-650 179 -16 2 -31 4 -32 5 -2 2 -11 3 -20 4 -10 1 -47 6 -83 10 -36 5 -83 11
-105 13 -49 6 -522 13 -527 8z m352 -1559 c52 -3 106 -8 120 -11 14 -3 43 -8
65 -11 21 -4 56 -12 77 -20 21 -7 38 -11 38 -9 0 9 235 -79 280 -106 8 -4 36
-19 63 -31 26 -13 47 -26 47 -30 0 -5 5 -8 10 -8 11 0 89 -52 165 -112 70 -54
235 -220 235 -235 0 -7 4 -13 9 -13 18 0 142 -193 192 -300 36 -77 84 -203 81
-214 -2 -4 1 -13 6 -20 5 -6 12 -27 16 -46 7 -41 14 -75 22 -110 3 -14 8 -41
12 -60 7 -44 7 -364 -1 -408 -3 -18 -9 -51 -12 -73 -4 -23 -10 -52 -15 -65 -5
-13 -8 -24 -5 -24 2 0 -2 -18 -10 -40 -8 -22 -15 -42 -15 -45 -1 -7 -11 -36
-25 -76 -8 -20 -11 -39 -8 -43 4 -3 1 -6 -5 -6 -7 0 -12 -6 -12 -14 0 -40
-161 -309 -230 -384 -16 -18 -30 -35 -30 -38 0 -5 -109 -113 -166 -164 -52
-47 -242 -173 -307 -203 -141 -67 -297 -125 -321 -118 -4 1 -14 -4 -22 -10 -8
-6 -14 -9 -14 -6 0 2 -30 -2 -67 -10 -145 -30 -405 -35 -533 -9 -14 3 -38 7
-55 10 -131 22 -290 76 -420 143 -67 35 -194 111 -205 123 -3 3 -23 18 -45 35
-211 155 -405 415 -504 675 -22 56 -67 213 -75 261 -9 55 -19 146 -22 199 -1
30 -3 57 -4 60 -1 3 -1 10 0 15 1 6 4 48 6 95 2 47 6 101 9 120 3 19 8 46 10
60 7 55 16 94 26 111 5 11 8 19 5 19 -7 0 21 84 59 181 86 213 244 435 414
579 36 30 72 62 82 72 9 9 20 14 23 11 3 -4 6 -1 6 5 0 6 8 13 18 16 10 4 27
14 38 24 11 9 29 22 40 28 118 66 140 77 299 144 35 14 158 48 215 59 98 19
124 22 199 26 41 3 75 6 77 7 1 2 18 3 36 1 18 -1 76 -4 128 -7z"/>
<path d="M1619 1855 c-2 -2 -17 -5 -34 -8 -139 -22 -318 -102 -431 -192 -43
-35 -164 -157 -164 -166 0 -3 -11 -19 -25 -35 -47 -54 -126 -234 -141 -321 -3
-15 -9 -43 -14 -61 -15 -58 -4 -279 19 -367 21 -79 79 -217 93 -223 5 -2 8 -9
8 -16 0 -14 73 -110 124 -166 56 -60 139 -127 199 -161 47 -27 149 -75 177
-84 3 -1 23 -7 45 -14 93 -28 193 -40 310 -36 66 2 130 6 143 9 215 48 365
128 502 266 80 80 90 92 131 155 37 58 68 121 91 185 22 62 24 70 42 160 12
60 14 239 3 285 -3 11 -8 40 -13 65 -10 57 -4 39 -46 146 -54 141 -192 316
-314 399 -33 22 -61 42 -64 45 -19 21 -144 74 -235 101 -99 29 -125 33 -256
35 -81 2 -148 1 -150 -1z"/>
</g>
</svg>
